<svg width="37" height="36" viewBox="0 0 37 36" fill="none" xmlns="http://www.w3.org/2000/svg">
<mask id="path-1-outside-1_321_186" maskUnits="userSpaceOnUse" x="0" y="0.5" width="37" height="35" fill="black">
<rect fill="white" y="0.5" width="37" height="35"/>
<path fill-rule="evenodd" clip-rule="evenodd" d="M24.2472 4.5H12.5996V14.1H8L18.4234 28.5L28.8468 14.1H24.2472V4.5Z"/>
</mask>
<path fill-rule="evenodd" clip-rule="evenodd" d="M24.2472 4.5H12.5996V14.1H8L18.4234 28.5L28.8468 14.1H24.2472V4.5Z" fill="white"/>
<path d="M12.5996 4.5V0.5H8.59957V4.5H12.5996ZM24.2472 4.5H28.2472V0.5H24.2472V4.5ZM12.5996 14.1V18.1H16.5996V14.1H12.5996ZM8 14.1V10.1H0.166677L4.75978 16.4454L8 14.1ZM18.4234 28.5L15.1832 30.8454L18.4234 35.3218L21.6636 30.8454L18.4234 28.5ZM28.8468 14.1L32.087 16.4454L36.6801 10.1H28.8468V14.1ZM24.2472 14.1H20.2472V18.1H24.2472V14.1ZM12.5996 8.5H24.2472V0.5H12.5996V8.5ZM16.5996 14.1V4.5H8.59957V14.1H16.5996ZM8 18.1H12.5996V10.1H8V18.1ZM21.6636 26.1546L11.2402 11.7546L4.75978 16.4454L15.1832 30.8454L21.6636 26.1546ZM25.6065 11.7546L15.1832 26.1546L21.6636 30.8454L32.087 16.4454L25.6065 11.7546ZM24.2472 18.1H28.8468V10.1H24.2472V18.1ZM20.2472 4.5V14.1H28.2472V4.5H20.2472Z" fill="black" mask="url(#path-1-outside-1_321_186)"/>
</svg>
