<svg width="52" height="51" viewBox="0 0 52 51" fill="none" xmlns="http://www.w3.org/2000/svg">
<g clip-path="url(#clip0_320_3548)">
<path d="M26.0005 50.1427C39.6101 50.1427 50.6428 39.11 50.6428 25.5005C50.6428 11.8909 39.6101 0.858215 26.0005 0.858215C12.391 0.858215 1.35828 11.8909 1.35828 25.5005C1.35828 39.11 12.391 50.1427 26.0005 50.1427Z" fill="#1172D8"/>
<path opacity="0.1" d="M8.22435 25.4999C8.22435 13.0559 17.4491 2.76813 29.433 1.09738C28.3108 0.940991 27.1651 0.858215 25.9999 0.858215C12.3907 0.858215 1.35828 11.8908 1.35828 25.4999C1.35828 39.1092 12.3908 50.1416 25.9999 50.1416C27.1651 50.1416 28.3108 50.0588 29.433 49.9024C17.4491 48.2318 8.22435 37.944 8.22435 25.4999Z" fill="black"/>
<path d="M29.3237 19.6907H22.6761V42.1827H29.3237V19.6907Z" fill="white"/>
<path d="M26.0005 16.53C28.1633 16.53 29.9165 14.7768 29.9165 12.6141C29.9165 10.4513 28.1633 8.69812 26.0005 8.69812C23.8378 8.69812 22.0846 10.4513 22.0846 12.6141C22.0846 14.7768 23.8378 16.53 26.0005 16.53Z" fill="white"/>
<path d="M44.315 42.8425C44.1103 42.8425 43.905 42.7697 43.7409 42.622C43.3887 42.3047 43.3603 41.7621 43.6773 41.4099C47.6149 37.0378 49.7833 31.3875 49.7833 25.5001C49.7835 12.3856 39.1143 1.71647 26 1.71647C20.4904 1.71647 15.1197 3.64361 10.8772 7.14289C10.5118 7.44441 9.97069 7.39271 9.66898 7.02694C9.36736 6.66118 9.41926 6.1203 9.78502 5.81878C14.3343 2.0666 20.0928 0 26 0C32.8113 0 39.2149 2.6525 44.0312 7.46881C48.8475 12.2851 51.5 18.6887 51.5 25.5C51.5 31.8124 49.175 37.8707 44.953 42.5585C44.7836 42.7467 44.5497 42.8425 44.315 42.8425Z" fill="black"/>
<path d="M26 51C19.1888 51 12.7851 48.3475 7.96883 43.5312C3.15252 38.7149 0.500122 32.3113 0.500122 25.4999C0.500122 19.0991 2.88268 12.9779 7.20881 8.26388C7.52915 7.91475 8.07213 7.89124 8.42146 8.21178C8.77069 8.53232 8.79389 9.07519 8.47345 9.42443C4.43858 13.821 2.21659 19.5301 2.21659 25.4999C2.21659 38.6142 12.8857 49.2833 26 49.2833C31.589 49.2833 37.0205 47.3049 41.2938 43.7125C41.6567 43.4074 42.198 43.4544 42.5031 43.8172C42.8081 44.18 42.7613 44.7214 42.3984 45.0264C37.8162 48.8786 31.9925 51 26 51Z" fill="black"/>
<path d="M29.3238 43.0404H22.6762C22.2021 43.0404 21.818 42.6562 21.818 42.1822V19.6905C21.818 19.2166 22.2022 18.8323 22.6762 18.8323H29.3238C29.7979 18.8323 30.182 19.2166 30.182 19.6905V42.1821C30.182 42.6562 29.7978 43.0404 29.3238 43.0404ZM23.5347 41.324H28.4656V20.5487H23.5347V41.324Z" fill="black"/>
<path d="M26 17.3879C23.3674 17.3879 21.2257 15.2462 21.2257 12.6136C21.2257 9.98106 23.3674 7.83936 26 7.83936C28.6326 7.83936 30.7743 9.98106 30.7743 12.6136C30.7743 15.2462 28.6326 17.3879 26 17.3879ZM26 9.55582C24.314 9.55582 22.9422 10.9275 22.9422 12.6136C22.9422 14.2997 24.3139 15.6714 26 15.6714C27.6861 15.6714 29.0578 14.2997 29.0578 12.6136C29.0578 10.9275 27.6861 9.55582 26 9.55582Z" fill="black"/>
</g>
<defs>
<clipPath id="clip0_320_3548">
<rect width="51" height="51" fill="white" transform="translate(0.5)"/>
</clipPath>
</defs>
</svg>
