<svg width="124" height="240" viewBox="0 0 124 240" fill="none" xmlns="http://www.w3.org/2000/svg">
<path fill-rule="evenodd" clip-rule="evenodd" d="M67.0214 163.587C67.321 163.579 67.6199 163.568 67.9181 163.554C68.2166 163.55 68.5157 163.544 68.8153 163.535C97.7116 162.699 120.458 138.588 119.622 109.683C118.785 80.777 94.6812 58.0226 65.7848 58.8591C65.4853 58.8678 65.1864 58.879 64.8881 58.8926L64.8881 58.8926C64.5896 58.8962 64.2906 58.9024 63.991 58.9111C35.0946 59.7476 12.3478 83.8584 13.1846 112.764C14.0215 141.67 38.125 164.424 67.0214 163.587ZM59.6608 105.723L32.914 134.073C28.5988 127.92 25.9756 120.476 25.7418 112.4C25.1617 92.3615 39.4951 75.3547 58.6857 72.0395L59.6608 105.723ZM40.7143 142.371C46.4123 146.917 53.3769 149.925 60.9655 150.788L60.1261 121.795L40.7143 142.371ZM72.8159 105.342L101.158 132.098C105.11 125.705 107.298 118.122 107.064 110.046C106.484 90.0072 91.191 73.8581 71.8408 71.6587L72.8159 105.342ZM93.8508 140.832C88.4254 145.701 81.6465 149.107 74.1206 150.407L73.2812 121.414L93.8508 140.832Z" fill="black"/>
<g clip-path="url(#clip0_44_3305)">
<path d="M83.3502 236.572C82.2851 236.566 81.5786 235.895 81.5838 234.893L81.6709 218.199C81.6761 217.197 82.3895 216.533 83.4546 216.539C84.5197 216.544 85.2261 217.216 85.2209 218.217L85.1339 234.911C85.1289 235.913 84.4152 236.577 83.3502 236.572Z" fill="#FFDD09"/>
<path d="M88.6755 236.599C87.6105 236.594 86.904 235.922 86.9092 234.921L86.9875 219.896C86.9927 218.894 87.7062 218.23 88.7713 218.236C89.8363 218.241 90.5428 218.913 90.5376 219.914L90.4593 234.939C90.4542 235.941 89.7406 236.605 88.6755 236.599Z" fill="#FFDD09"/>
<path d="M94.0007 236.627C92.9357 236.622 92.2292 235.95 92.2344 234.949L92.304 221.593C92.3093 220.591 93.0227 219.927 94.0878 219.933C95.1528 219.939 95.8593 220.61 95.8541 221.612L95.7845 234.967C95.7795 235.969 95.0658 236.633 94.0007 236.627Z" fill="#FFDD09"/>
<path d="M99.3261 236.655C98.261 236.65 97.5545 235.978 97.5598 234.977L97.6207 223.291C97.6259 222.289 98.3394 221.625 99.4044 221.631C100.469 221.636 101.176 222.308 101.171 223.309L101.11 234.995C101.105 235.997 100.391 236.661 99.3261 236.655Z" fill="#FFDD09"/>
<path d="M104.651 236.683C103.586 236.677 102.88 236.006 102.885 235.004L102.946 223.318C102.951 222.317 103.665 221.653 104.73 221.658C105.795 221.664 106.501 222.335 106.496 223.337L106.435 235.023C106.43 236.025 105.716 236.689 104.651 236.683Z" fill="#FFDD09"/>
<path d="M104.956 178.253L104.721 223.328L79.9046 216.52L80.1047 178.123L104.956 178.253Z" fill="#FFDD09"/>
<path d="M99.6307 178.225L99.4036 221.797L104.721 223.328L104.956 178.253L99.6307 178.225Z" fill="#FD9808"/>
<path d="M104.956 178.253L104.729 221.825L110.046 223.355L110.281 178.281L104.956 178.253Z" fill="#FFDD09"/>
<path d="M110.403 154.909C114.308 154.929 117.488 157.951 117.469 161.624L117.417 171.64C117.397 175.313 114.187 178.301 110.281 178.281L21.5263 177.816C17.6212 177.796 14.4417 174.774 14.4608 171.101L14.513 161.085C14.5322 157.412 17.743 154.424 21.6482 154.444C17.743 154.424 14.5635 151.402 14.5827 147.729L14.6001 144.391C14.6192 140.718 17.8301 137.73 21.7352 137.75L110.49 138.215C114.396 138.235 117.575 141.257 117.556 144.93L117.539 148.268C117.519 151.941 114.309 154.929 110.403 154.909Z" fill="#FFDD09"/>
<path d="M117.539 148.268L117.556 144.93C117.575 141.257 114.396 138.235 110.49 138.215L105.165 138.187C109.07 138.207 112.25 141.229 112.231 144.902L112.213 148.241C112.194 151.913 108.983 154.902 105.078 154.881C108.983 154.902 112.163 157.923 112.144 161.596L112.091 171.613C112.072 175.285 108.861 178.273 104.956 178.253L110.282 178.281C114.187 178.301 117.398 175.313 117.417 171.64L117.469 161.624C117.488 157.951 114.309 154.929 110.403 154.909C114.309 154.929 117.519 151.941 117.539 148.268Z" fill="#FD9808"/>
<path d="M14.5825 147.729L14.6 144.391C14.6191 140.718 17.83 137.73 21.7351 137.75L27.0604 137.778C23.1553 137.757 19.9444 140.746 19.9253 144.418L19.9079 147.757C19.8887 151.43 23.0682 154.452 26.9734 154.472C23.0682 154.452 19.8574 157.44 19.8382 161.113L19.786 171.129C19.7669 174.802 22.9464 177.824 26.8515 177.844L21.5262 177.816C17.6211 177.796 14.4415 174.774 14.4607 171.101L14.5129 161.085C14.5321 157.412 17.7429 154.424 21.6481 154.444C17.7429 154.424 14.5634 151.402 14.5825 147.729Z" fill="white"/>
<path d="M110.273 179.95L21.5177 179.486C16.5473 179.46 12.6613 175.766 12.6856 171.092L12.7379 161.075C12.7518 158.404 14.185 155.908 16.3229 154.416C14.2007 152.903 12.7936 150.391 12.8075 147.72L12.8249 144.381C12.8493 139.707 16.7736 136.055 21.744 136.081L110.499 136.545C115.469 136.571 119.355 140.264 119.331 144.939L119.314 148.278C119.3 150.949 117.867 153.446 115.729 154.937C117.851 156.45 119.258 158.962 119.244 161.633L119.192 171.65C119.167 176.324 115.243 179.976 110.273 179.95ZM23.4233 154.454C23.4181 155.455 22.7046 156.119 21.6395 156.114C18.6218 156.098 16.3029 158.256 16.2881 161.094L16.2359 171.111C16.2211 173.949 18.5174 176.131 21.5351 176.147L110.29 176.611C113.308 176.627 115.627 174.469 115.642 171.631L115.694 161.614C115.709 158.776 113.412 156.594 110.395 156.578C109.33 156.573 108.623 155.901 108.628 154.9C108.634 153.898 109.347 153.234 110.412 153.24C113.43 153.255 115.749 151.097 115.764 148.259L115.781 144.92C115.796 142.082 113.5 139.9 110.482 139.884L21.7266 139.419C18.7088 139.404 16.39 141.562 16.3752 144.4L16.3578 147.739C16.343 150.577 18.6392 152.759 21.657 152.775C22.722 152.78 23.4285 153.452 23.4233 154.454Z" fill="black"/>
<path d="M32.2902 156.169L21.6396 156.114C20.5745 156.108 19.868 155.437 19.8733 154.435C19.8785 153.433 20.5919 152.769 21.657 152.775L32.3076 152.831C33.3727 152.836 34.0792 153.508 34.0739 154.509C34.0687 155.511 33.3553 156.175 32.2902 156.169Z" fill="black"/>
<path d="M110.395 156.578L99.7439 156.523C98.6789 156.517 97.9724 155.846 97.9776 154.844C97.9828 153.842 98.6963 153.178 99.7614 153.184L110.412 153.24C111.477 153.245 112.184 153.917 112.178 154.918C112.173 155.92 111.46 156.584 110.395 156.578Z" fill="black"/>
<path d="M104.712 224.997C104.535 224.996 104.357 224.995 104.18 224.994L79.3632 218.187C78.6541 218.016 78.125 217.345 78.1294 216.511L78.3296 178.114C78.3348 177.112 79.0482 176.448 80.1133 176.454L104.965 176.584C106.03 176.589 106.736 177.261 106.731 178.262L106.496 223.337C106.494 223.838 106.313 224.338 105.779 224.669C105.423 224.834 105.067 224.999 104.712 224.997ZM81.6866 215.194L102.958 220.981L103.172 179.913L81.8711 179.802L81.6866 215.194Z" fill="black"/>
<path d="M81.5751 236.562C80.5101 236.557 79.8036 235.885 79.8088 234.884L79.8958 218.189C79.9011 217.188 80.6145 216.524 81.6796 216.529C82.7446 216.535 83.4511 217.206 83.4459 218.208L83.3589 234.902C83.3536 235.904 82.6402 236.568 81.5751 236.562Z" fill="black"/>
<path d="M86.9005 236.59C85.8354 236.585 85.1289 235.913 85.1342 234.912L85.2125 219.887C85.2177 218.885 85.9312 218.221 86.9962 218.227C88.0613 218.232 88.7678 218.904 88.7626 219.905L88.6842 234.93C88.679 235.932 87.9655 236.596 86.9005 236.59Z" fill="black"/>
<path d="M92.2258 236.618C91.1608 236.612 90.4543 235.941 90.4595 234.939L90.5291 221.584C90.5344 220.582 91.2478 219.918 92.3129 219.924C93.3779 219.929 94.0844 220.601 94.0792 221.602L94.0096 234.958C94.0044 235.96 93.2909 236.624 92.2258 236.618Z" fill="black"/>
<path d="M97.5511 236.646C96.486 236.64 95.7795 235.969 95.7847 234.967L95.8457 223.281C95.8509 222.28 96.5643 221.616 97.6294 221.621C98.6945 221.627 99.401 222.298 99.3957 223.3L99.3348 234.986C99.3296 235.987 98.6161 236.651 97.5511 236.646Z" fill="black"/>
<path d="M102.876 236.674C101.811 236.668 101.105 235.997 101.11 234.995L101.171 223.309C101.176 222.307 101.89 221.643 102.955 221.649C104.02 221.655 104.726 222.326 104.721 223.328L104.66 235.014C104.655 236.015 103.941 236.679 102.876 236.674Z" fill="black"/>
<path d="M88.9106 191.525C87.8455 191.519 87.139 190.848 87.1442 189.846L87.2052 178.16C87.2104 177.159 87.9238 176.495 88.9889 176.5C90.054 176.506 90.7605 177.177 90.7552 178.179L90.6943 189.865C90.6893 190.866 89.9756 191.53 88.9106 191.525Z" fill="black"/>
<path d="M95.9762 198.24C94.9112 198.234 94.2047 197.563 94.2099 196.561L94.3056 178.197C94.3108 177.196 95.0243 176.532 96.0894 176.537C97.1544 176.543 97.8609 177.214 97.8557 178.216L97.76 196.58C97.7547 197.581 97.0413 198.245 95.9762 198.24Z" fill="black"/>
<path d="M88.8061 211.558C87.7411 211.552 87.0346 210.881 87.0398 209.879L87.092 199.863C87.0972 198.861 87.8107 198.197 88.8757 198.203C89.9408 198.208 90.6473 198.88 90.6421 199.881L90.5899 209.898C90.5848 210.9 89.8712 211.564 88.8061 211.558Z" fill="black"/>
<path d="M30.4366 171.185L14.4606 171.101C13.3956 171.096 12.6891 170.424 12.6943 169.423C12.6995 168.421 13.413 167.757 14.478 167.763L30.454 167.846C31.519 167.852 32.2255 168.523 32.2203 169.525C32.2153 170.527 31.5016 171.191 30.4366 171.185Z" fill="black"/>
<path d="M41.122 164.563L14.4954 164.424C13.4304 164.418 12.7239 163.747 12.7291 162.745C12.7343 161.743 13.4478 161.079 14.5128 161.085L41.1394 161.224C42.2044 161.23 42.9109 161.901 42.9057 162.903C42.9005 163.904 42.187 164.569 41.122 164.563Z" fill="black"/>
<path d="M117.452 164.963L101.476 164.879C100.411 164.873 99.7041 164.202 99.7093 163.2C99.7145 162.199 100.428 161.535 101.493 161.54L117.469 161.624C118.534 161.63 119.241 162.301 119.235 163.303C119.23 164.304 118.517 164.968 117.452 164.963Z" fill="black"/>
<path d="M117.417 171.64L90.7902 171.501C89.7252 171.495 89.0187 170.824 89.0239 169.822C89.0291 168.821 89.7426 168.157 90.8076 168.162L117.434 168.302C118.499 168.307 119.206 168.979 119.2 169.98C119.195 170.982 118.482 171.646 117.417 171.64Z" fill="black"/>
<path d="M117.547 146.599L92.6959 146.469C91.6308 146.463 90.9243 145.792 90.9295 144.79C90.9348 143.789 91.6482 143.125 92.7133 143.13L117.565 143.26C118.63 143.266 119.336 143.937 119.331 144.939C119.326 145.941 118.612 146.605 117.547 146.599Z" fill="black"/>
<path d="M25.2244 149.455L14.5738 149.399C13.5087 149.393 12.8022 148.722 12.8075 147.72C12.8127 146.718 13.5261 146.054 14.5912 146.06L25.2418 146.116C26.3069 146.121 27.0134 146.793 27.0081 147.794C27.0029 148.796 26.2895 149.46 25.2244 149.455Z" fill="black"/>
<path d="M80.1745 164.768L58.8732 164.656C57.8082 164.65 57.1017 163.979 57.1069 162.977C57.1121 161.976 57.8256 161.312 58.8906 161.317L80.1919 161.429C81.2569 161.434 81.9634 162.106 81.9582 163.107C81.953 164.109 81.2395 164.773 80.1745 164.768Z" fill="black"/>
<path d="M73.0391 171.408L44.6375 171.259C43.5724 171.254 42.866 170.582 42.8712 169.581C42.8764 168.579 43.5899 167.915 44.6549 167.921L73.0565 168.069C74.1216 168.075 74.828 168.746 74.8228 169.748C74.8178 170.75 74.1041 171.414 73.0391 171.408Z" fill="black"/>
<path d="M71.3772 149.696L42.9756 149.547C41.9106 149.542 41.2041 148.87 41.2093 147.869C41.2145 146.867 41.928 146.203 42.9931 146.209L71.3946 146.357C72.4597 146.363 73.1662 147.034 73.161 148.036C73.1557 149.038 72.4423 149.702 71.3772 149.696Z" fill="black"/>
</g>
<path d="M75.8073 40.2491C82.2404 59.4975 70.064 66.9402 53.6996 72.0993C37.3352 77.2584 22.9796 78.1803 16.5465 58.9319C13.9024 51.0205 14.9802 53.0049 13.0942 41.1593C11.2082 29.3136 26.4017 16.0964 36.0402 13.0577C46.2244 9.84698 52.9692 15.6048 61.3788 23.1277C66.4821 27.693 71.0089 33.3346 75.8073 40.2491Z" fill="#005BBA"/>
<path d="M68.5156 42.5478C74.9487 61.7963 64.4047 68.7244 50.0539 73.2488C35.703 77.7731 22.9797 78.1803 16.5466 58.9318C13.9025 51.0204 14.9341 53.0193 12.8173 41.2463C10.7005 29.4733 23.711 16.9443 32.1635 14.2795C41.0946 11.4638 47.3029 17.3909 55.0562 25.1208C59.7613 29.8116 63.9941 35.5459 68.5156 42.5478Z" fill="#1172D8"/>
<path d="M72.7314 41.3094C75.8009 50.5251 74.2904 56.6347 70.3046 61.104C66.1558 65.7562 59.134 68.8647 50.7039 71.4867C42.2738 74.1087 34.6852 75.5444 28.4757 74.1141C22.4656 72.7296 17.4683 68.584 14.3069 59.2527C12.9608 55.2797 12.5957 53.8841 12.3151 52.024C12.2178 51.379 12.1324 50.69 12.0246 49.8197C11.9692 49.3732 11.908 48.8791 11.8362 48.3186C11.6269 46.6856 11.3353 44.5516 10.8543 41.5429C10.0077 36.2468 13.067 30.346 17.9089 25.2123C22.7106 20.1212 28.9217 16.1595 33.6067 14.7024C38.4721 13.1891 42.4374 13.7696 46.2461 15.6021C50.1547 17.4827 53.897 20.6758 58.2598 24.4956C63.3372 28.941 67.8772 34.461 72.7314 41.3094Z" stroke="black" stroke-width="3"/>
<path d="M67.8876 34.1381L52.3317 40.3493C51.665 40.6155 51.0585 40.3571 50.8153 39.7033C50.572 39.0495 50.8543 38.4362 51.521 38.17L67.0769 31.9588C67.7436 31.6926 68.3501 31.951 68.5934 32.6048C68.8366 33.2586 68.5543 33.8719 67.8876 34.1381Z" fill="black"/>
<path d="M19.6334 39.5576L12.1545 42.4618C11.4066 42.7522 10.6967 42.6019 10.3799 42.0862C10.063 41.5705 10.3504 41.0331 11.0982 40.7427L18.5772 37.8385C19.325 37.5481 20.0348 37.6982 20.3517 38.214C20.6685 38.7297 20.3813 39.2672 19.6334 39.5576Z" fill="black"/>
<path d="M27.8588 27.9188L26.9433 28.3212L27.2652 29.2679L32.5229 44.7339C32.77 45.4606 33.2132 46.0843 33.8 46.5288C34.387 46.9735 35.0932 47.2202 35.8337 47.2366L42.0857 47.375L42.5107 47.3844L42.8247 47.0576L47.4078 42.2871L47.4138 42.2808L47.4198 42.2744C47.9581 41.696 48.3348 40.9734 48.5061 40.1955C48.6775 39.4177 48.6365 38.6173 48.3894 37.8906L43.0933 22.3117L42.7714 21.3649L41.8559 21.7673L27.8588 27.9188Z" fill="#005BBB" stroke="black" stroke-width="2"/>
<path d="M29.6074 28.5574L42.4402 22.9176L47.7363 38.4965C47.922 39.0427 47.9651 39.6382 47.8604 40.2106C47.7556 40.7829 47.5076 41.3077 47.1462 41.7211L43.0122 46.2942L37.2094 45.9584C36.6974 45.9288 36.2035 45.7302 35.7874 45.3867C35.3713 45.0432 35.0509 44.5696 34.8652 44.0234L29.6074 28.5574Z" fill="#005BBB" stroke="#FFD500"/>
<path d="M38.8781 32.5355C39.4259 34.3319 40.4069 35.9167 41.7079 37.1069C42.582 37.9064 43.1764 39.0369 43.3829 40.2922C43.5894 41.5475 43.3942 42.844 42.8328 43.9453C42.6635 44.2002 42.5525 44.4995 42.5098 44.8162C42.2909 44.6145 42.0317 44.4779 41.7556 44.4187C40.6887 44.033 39.7773 43.2229 39.1875 42.136C38.5977 41.0491 38.3689 39.7579 38.5427 38.4979C38.8015 36.6223 38.59 34.6992 37.9327 32.951L36.4167 28.9188C36.1576 28.2297 36.1405 27.4541 36.369 26.7532C36.9527 27.0972 37.3988 27.6842 37.6147 28.3923L38.8781 32.5355ZM42.3251 42.9379C42.642 42.0665 42.7016 41.1 42.495 40.1841C42.2884 39.2683 41.8267 38.4529 41.1797 37.8611C40.527 37.264 39.9444 36.5731 39.4466 35.8058C39.532 36.7544 39.5096 37.7111 39.3798 38.6521C39.2511 39.5848 39.3918 40.5413 39.7807 41.377C40.1695 42.2128 40.7854 42.8824 41.5354 43.285L40.5797 40.474L41.3695 40.1269L42.3251 42.9379Z" fill="#FFD500"/>
<path d="M40.487 31.4498C40.2741 30.5112 40.2612 29.5289 40.4492 28.5852C40.6372 27.6414 41.0208 26.7638 41.5677 26.0258L46.0197 39.1213L41.2813 41.2037L40.5794 40.4741C40.4225 40.0127 40.4076 39.5046 40.5372 39.0336C40.6668 38.5625 40.933 38.1564 41.2923 37.8821L42.3469 37.0768C42.4393 37.0062 42.5186 36.9155 42.5801 36.8097C42.6417 36.704 42.6844 36.5853 42.7056 36.4606C42.7269 36.3358 42.7265 36.2073 42.7042 36.0826C42.682 35.9578 42.6385 35.8392 42.5761 35.7335C42.5138 35.6278 42.4338 35.5371 42.3409 35.4666C42.2479 35.3961 42.1437 35.3472 42.0343 35.3226C41.9249 35.298 41.8125 35.2983 41.7033 35.3234C41.5942 35.3486 41.4906 35.398 41.3984 35.469L40.487 31.4498ZM42.0154 34.3442C42.3652 34.3793 42.6973 34.5374 42.9657 34.7968C43.2342 35.0563 43.4258 35.4042 43.5141 35.7925C43.6024 36.1808 43.583 36.5904 43.4586 36.9646C43.3343 37.3389 43.111 37.6594 42.8198 37.8818L41.7652 38.687C41.5656 38.8394 41.4177 39.065 41.3457 39.3267C41.2737 39.5884 41.282 39.8707 41.3691 40.127L44.9229 38.5652L41.4155 28.2483C41.1233 29.1992 41.0852 30.2289 41.3063 31.2068L42.0154 34.3442ZM43.063 35.2303L43.8527 34.8833L44.1597 35.7864L43.37 36.1335L43.063 35.2303Z" fill="#FFD500"/>
<path d="M35.8978 33.4665C35.5001 32.6091 34.9286 31.8723 34.2312 31.3177C33.5338 30.7631 32.7308 30.407 31.8895 30.279L36.3414 43.3745L41.0798 41.2921L41.1676 40.2154C41.0108 39.754 40.7213 39.3667 40.3467 39.1171C39.9722 38.8676 39.5349 38.7707 39.1068 38.8424L37.85 39.053C37.7399 39.0714 37.6275 39.0649 37.5194 39.0337C37.4113 39.0025 37.3095 38.9473 37.22 38.8713C37.1304 38.7952 37.0548 38.6998 36.9974 38.5905C36.9401 38.4812 36.9021 38.3601 36.8857 38.2342C36.8694 38.1083 36.8749 37.98 36.902 37.8568C36.929 37.7335 36.9772 37.6176 37.0436 37.5158C37.11 37.4139 37.1934 37.3281 37.2891 37.2633C37.3847 37.1984 37.4906 37.1558 37.6009 37.1378L35.8978 33.4665ZM36.4789 36.7773C36.2407 37.0707 36.0885 37.4417 36.0433 37.839C35.9981 38.2362 36.0621 38.6402 36.2265 38.9951C36.3909 39.35 36.6475 39.6383 36.9609 39.8201C37.2744 40.002 37.6291 40.0684 37.9762 40.0103L39.233 39.7997C39.4708 39.7599 39.7138 39.8137 39.9218 39.9523C40.1299 40.091 40.2908 40.3062 40.3779 40.5625L36.8241 42.1243L33.3168 31.8074C34.0956 32.2876 34.7328 33.0205 35.1477 33.9132L36.4789 36.7773ZM36.2278 38.2341L35.4381 38.5812L35.7451 39.4843L36.5348 39.1372L36.2278 38.2341Z" fill="#FFD500"/>
<path d="M11.6554 62.896C11.1078 61.1153 12.2674 59.1974 14.0801 58.7971C21.1532 57.2351 38.0098 52.7089 55.1054 42.2005C75.9295 29.4002 79.391 34.8061 79.7841 35.6593C79.817 35.7307 79.8414 35.8017 79.8705 35.8749L87.0998 54.1096C88.1675 56.8026 84.3425 61.8851 81.4741 62.1866C75.8208 62.7807 66.8974 64.6282 53.0957 69.3577C40.7978 73.5719 33.086 77.8162 28.257 81.4037C25.7072 83.2979 17.5179 81.9589 16.5927 78.9506L11.6554 62.896Z" fill="#FED500"/>
<path fill-rule="evenodd" clip-rule="evenodd" d="M24.9205 82.9964C26.5787 83.0366 28.0916 82.766 28.9561 82.1237C33.7178 78.5862 41.2825 74.4099 53.2834 70.2534C51.7681 70.7399 50.1856 71.2649 48.5332 71.8311C37.2276 75.7055 29.7978 79.6051 24.9205 82.9964ZM79.6716 63.2228C80.5698 63.0908 81.4029 62.9862 82.175 62.9051C85.0433 62.6036 88.8681 57.5212 87.8004 54.8282L80.5716 36.5943C80.5625 36.5715 80.5539 36.5488 80.5454 36.5263C80.5265 36.4767 80.5079 36.4278 80.4853 36.3787C80.1821 35.7208 78.0542 32.3556 67.5461 36.7202C73.5557 35.325 74.979 37.6039 75.2227 38.1329C75.2453 38.182 75.2639 38.231 75.2828 38.2805C75.2913 38.303 75.2999 38.3257 75.309 38.3485L82.5378 56.5824C83.2757 58.4436 81.6767 61.4461 79.6716 63.2228ZM25.0922 56.7531C20.7646 58.1022 17.1999 58.9835 14.7803 59.518C14.161 59.6547 13.618 59.9686 13.1932 60.3937C16.3721 59.5797 20.4499 58.4014 25.0922 56.7531Z" fill="#FD9808"/>
<path d="M30.1586 77.0617L18.9692 81.5122C18.2232 81.8089 17.4912 81.5863 17.1391 80.9558C16.7869 80.3252 17.0494 79.7071 17.7953 79.4104L28.9847 74.9599C29.7307 74.6633 30.4627 74.8858 30.8149 75.5163C31.1672 76.1468 30.9045 76.765 30.1586 77.0617Z" fill="black"/>
<path d="M87.015 62.4726C87.015 62.4726 65.5059 66.3265 52.6392 71.8888C39.7725 77.4511 25.5534 86.267 25.5534 86.267C22.0722 87.6517 18.0456 86.4275 16.4021 83.4848L12.8804 77.179C11.9412 75.4975 12.0555 73.5254 13.0191 71.9861C10.9989 71.6336 9.12381 70.4528 8.18462 68.7712L7.01073 66.6693C5.36719 63.7265 6.81106 60.3265 10.2923 58.9418L72.3873 33.2624C75.8684 31.8778 80.7356 34.077 82.3792 37.0198L83.5531 39.1218C84.4922 40.8033 84.378 42.7754 83.4144 44.3147C85.4346 44.6671 86.5381 45.8262 87.4772 47.5077L90.2966 54.7451C91.94 57.6877 90.4962 61.0879 87.015 62.4726ZM17.9922 70.008C18.3444 70.6386 18.0819 71.2567 17.3359 71.5534C15.2223 72.3942 14.3691 74.4032 15.367 76.1899L18.8888 82.4957C19.8866 84.2824 22.2659 85.0058 24.3795 84.1651C24.3795 84.1651 32.3349 77.3848 51.4654 69.7868C70.5958 62.1888 85.8412 60.3705 85.8412 60.3705C87.9548 59.5298 88.808 57.5208 87.8101 55.7341L84.9907 48.4967C83.9929 46.71 82.3852 46.0084 80.2716 46.8491C79.5256 47.1458 78.7936 46.9232 78.4414 46.2927C78.0892 45.6621 78.3517 45.0439 79.0977 44.7472C81.2113 43.9065 82.0645 41.8975 81.0667 40.1108L79.8927 38.0088C78.8948 36.2221 75.6749 34.5237 73.5613 35.3644L11.4663 61.0438C9.35267 61.8845 8.49948 63.8936 9.49734 65.6803L10.6713 67.7823C11.6692 69.5689 14.0484 70.2923 16.162 69.4516C16.9079 69.1548 17.64 69.3774 17.9922 70.008Z" fill="black"/>
<path d="M80.3859 47.1595L73.7404 49.891C73.0758 50.1641 72.4429 49.82 72.158 49.0305C71.873 48.2411 72.1261 47.5328 72.7906 47.2596L79.4362 44.5281C80.1007 44.255 80.7336 44.5991 81.0186 45.3886C81.3035 46.178 81.0504 46.8864 80.3859 47.1595Z" fill="black"/>
<path d="M79.6517 37.3777L64.1456 43.751C63.4811 44.0242 62.8482 43.68 62.5632 42.8906C62.2783 42.1012 62.5314 41.3929 63.1959 41.1197L78.702 34.7465C79.3666 34.4733 79.9995 34.8175 80.2844 35.6069C80.5693 36.3963 80.3163 37.1046 79.6517 37.3777Z" fill="black"/>
<path d="M35.27 69.8905L16.6211 77.3078C15.8752 77.6045 15.1431 77.3819 14.791 76.7514C14.4388 76.1209 14.7012 75.5027 15.4472 75.206L34.0961 67.7887C34.842 67.492 35.574 67.7145 35.9262 68.3451C36.2784 68.9756 36.016 69.5938 35.27 69.8905Z" fill="black"/>
<path d="M18.7973 64.8809L11.3377 67.8479C10.5917 68.1446 9.85964 67.9219 9.50747 67.2914C9.15529 66.6608 9.41779 66.0427 10.1638 65.746L17.6234 62.779C18.3693 62.4823 19.1013 62.7048 19.4535 63.3354C19.8057 63.9659 19.5433 64.5842 18.7973 64.8809Z" fill="black"/>
<path d="M59.9965 65.1945L40.1044 73.1062C39.3585 73.4029 38.6265 73.1804 38.2743 72.5499C37.9221 71.9193 38.1846 71.3012 38.9306 71.0046L58.8227 63.0928C59.5686 62.7961 60.3006 63.0187 60.6528 63.6492C61.0051 64.2797 60.7425 64.8978 59.9965 65.1945Z" fill="black"/>
<path d="M51.1219 52.0248L31.2298 59.9366C30.4839 60.2333 29.7518 60.0107 29.3997 59.3802C29.0475 58.7497 29.31 58.1316 30.056 57.8349L49.948 49.9231C50.694 49.6264 51.426 49.849 51.7782 50.4795C52.1303 51.11 51.8679 51.7281 51.1219 52.0248Z" fill="black"/>
<defs>
<clipPath id="clip0_44_3305">
<rect width="106.508" height="100.167" fill="white" transform="matrix(0.999986 0.0052352 -0.0052135 0.999986 12.8684 136.034)"/>
</clipPath>
</defs>
</svg>
