<svg width="482" height="262" viewBox="0 0 482 262" fill="none" xmlns="http://www.w3.org/2000/svg">
<path fill-rule="evenodd" clip-rule="evenodd" d="M410.021 163.587C410.321 163.579 410.62 163.568 410.918 163.554C411.217 163.55 411.516 163.544 411.815 163.535C440.712 162.699 463.458 138.588 462.622 109.683C461.785 80.777 437.681 58.0226 408.785 58.8591C408.485 58.8678 408.186 58.879 407.888 58.8926L407.888 58.8926C407.59 58.8962 407.291 58.9024 406.991 58.9111C378.095 59.7476 355.348 83.8584 356.185 112.764C357.022 141.67 381.125 164.424 410.021 163.587ZM402.661 105.723L375.914 134.073C371.599 127.92 368.976 120.476 368.742 112.4C368.162 92.3615 382.495 75.3547 401.686 72.0395L402.661 105.723ZM383.714 142.371C389.412 146.917 396.377 149.925 403.966 150.788L403.126 121.795L383.714 142.371ZM415.816 105.342L444.158 132.098C448.11 125.705 450.298 118.122 450.064 110.046C449.484 90.0072 434.191 73.8581 414.841 71.6587L415.816 105.342ZM436.851 140.832C431.426 145.701 424.647 149.107 417.121 150.407L416.281 121.414L436.851 140.832Z" fill="black"/>
<g clip-path="url(#clip0_56_3374)">
<path d="M426.35 236.572C425.285 236.566 424.579 235.895 424.584 234.893L424.671 218.199C424.676 217.197 425.39 216.533 426.455 216.539C427.52 216.544 428.226 217.216 428.221 218.217L428.134 234.911C428.129 235.913 427.415 236.577 426.35 236.572Z" fill="#FFDD09"/>
<path d="M431.675 236.599C430.61 236.594 429.904 235.922 429.909 234.921L429.987 219.896C429.993 218.894 430.706 218.23 431.771 218.236C432.836 218.241 433.543 218.913 433.538 219.914L433.459 234.939C433.454 235.941 432.741 236.605 431.675 236.599Z" fill="#FFDD09"/>
<path d="M437.001 236.627C435.936 236.622 435.229 235.95 435.234 234.949L435.304 221.593C435.309 220.591 436.023 219.927 437.088 219.933C438.153 219.939 438.859 220.61 438.854 221.612L438.785 234.967C438.78 235.969 438.066 236.633 437.001 236.627Z" fill="#FFDD09"/>
<path d="M442.326 236.655C441.261 236.65 440.555 235.978 440.56 234.977L440.621 223.291C440.626 222.289 441.339 221.625 442.404 221.631C443.469 221.636 444.176 222.308 444.171 223.309L444.11 234.995C444.105 235.997 443.391 236.661 442.326 236.655Z" fill="#FFDD09"/>
<path d="M447.651 236.683C446.586 236.677 445.88 236.006 445.885 235.004L445.946 223.318C445.951 222.317 446.665 221.653 447.73 221.658C448.795 221.664 449.501 222.335 449.496 223.337L449.435 235.023C449.43 236.025 448.716 236.689 447.651 236.683Z" fill="#FFDD09"/>
<path d="M447.956 178.253L447.721 223.328L422.905 216.52L423.105 178.123L447.956 178.253Z" fill="#FFDD09"/>
<path d="M442.631 178.225L442.404 221.797L447.721 223.328L447.956 178.253L442.631 178.225Z" fill="#FD9808"/>
<path d="M447.956 178.253L447.729 221.825L453.046 223.355L453.281 178.281L447.956 178.253Z" fill="#FFDD09"/>
<path d="M453.403 154.909C457.308 154.929 460.488 157.951 460.469 161.624L460.417 171.64C460.397 175.313 457.187 178.301 453.281 178.281L364.526 177.816C360.621 177.796 357.442 174.774 357.461 171.101L357.513 161.085C357.532 157.412 360.743 154.424 364.648 154.444C360.743 154.424 357.564 151.402 357.583 147.729L357.6 144.391C357.619 140.718 360.83 137.73 364.735 137.75L453.49 138.215C457.396 138.235 460.575 141.257 460.556 144.93L460.539 148.268C460.519 151.941 457.309 154.929 453.403 154.909Z" fill="#FFDD09"/>
<path d="M460.539 148.268L460.556 144.93C460.575 141.257 457.396 138.235 453.49 138.215L448.165 138.187C452.07 138.207 455.25 141.229 455.231 144.902L455.213 148.241C455.194 151.913 451.983 154.902 448.078 154.881C451.983 154.902 455.163 157.923 455.144 161.596L455.091 171.613C455.072 175.285 451.861 178.273 447.956 178.253L453.282 178.281C457.187 178.301 460.398 175.313 460.417 171.64L460.469 161.624C460.488 157.951 457.309 154.929 453.403 154.909C457.309 154.929 460.519 151.941 460.539 148.268Z" fill="#FD9808"/>
<path d="M357.582 147.729L357.6 144.391C357.619 140.718 360.83 137.73 364.735 137.75L370.06 137.778C366.155 137.757 362.944 140.746 362.925 144.418L362.908 147.757C362.889 151.43 366.068 154.452 369.973 154.472C366.068 154.452 362.857 157.44 362.838 161.113L362.786 171.129C362.767 174.802 365.946 177.824 369.851 177.844L364.526 177.816C360.621 177.796 357.441 174.774 357.461 171.101L357.513 161.085C357.532 157.412 360.743 154.424 364.648 154.444C360.743 154.424 357.563 151.402 357.582 147.729Z" fill="white"/>
<path d="M453.273 179.95L364.518 179.486C359.547 179.46 355.661 175.766 355.686 171.092L355.738 161.075C355.752 158.404 357.185 155.908 359.323 154.416C357.201 152.903 355.793 150.391 355.807 147.72L355.825 144.381C355.849 139.707 359.774 136.055 364.744 136.081L453.499 136.545C458.469 136.571 462.355 140.264 462.331 144.939L462.314 148.278C462.3 150.949 460.866 153.446 458.728 154.937C460.851 156.45 462.258 158.962 462.244 161.633L462.192 171.65C462.167 176.324 458.243 179.976 453.273 179.95ZM366.423 154.454C366.418 155.455 365.705 156.119 364.639 156.114C361.622 156.098 359.303 158.256 359.288 161.094L359.236 171.111C359.221 173.949 361.517 176.131 364.535 176.147L453.29 176.611C456.308 176.627 458.627 174.469 458.642 171.631L458.694 161.614C458.709 158.776 456.412 156.594 453.395 156.578C452.33 156.573 451.623 155.901 451.628 154.9C451.634 153.898 452.347 153.234 453.412 153.24C456.43 153.255 458.749 151.097 458.764 148.259L458.781 144.92C458.796 142.082 456.499 139.9 453.482 139.884L364.727 139.419C361.709 139.404 359.39 141.562 359.375 144.4L359.358 147.739C359.343 150.577 361.639 152.759 364.657 152.775C365.722 152.78 366.428 153.452 366.423 154.454Z" fill="black"/>
<path d="M375.29 156.169L364.639 156.114C363.574 156.108 362.868 155.437 362.873 154.435C362.878 153.433 363.592 152.769 364.657 152.775L375.307 152.831C376.373 152.836 377.079 153.508 377.074 154.509C377.069 155.511 376.355 156.175 375.29 156.169Z" fill="black"/>
<path d="M453.394 156.578L442.744 156.523C441.679 156.517 440.972 155.846 440.978 154.844C440.983 153.842 441.696 153.178 442.761 153.184L453.412 153.24C454.477 153.245 455.183 153.917 455.178 154.918C455.173 155.92 454.46 156.584 453.394 156.578Z" fill="black"/>
<path d="M447.712 224.997C447.535 224.996 447.357 224.995 447.18 224.994L422.363 218.187C421.654 218.016 421.125 217.345 421.129 216.511L421.329 178.114C421.335 177.112 422.048 176.448 423.113 176.454L447.965 176.584C449.03 176.589 449.736 177.261 449.731 178.262L449.496 223.337C449.493 223.838 449.313 224.338 448.779 224.669C448.423 224.834 448.067 224.999 447.712 224.997ZM424.687 215.194L445.958 220.981L446.172 179.913L424.871 179.802L424.687 215.194Z" fill="black"/>
<path d="M424.575 236.562C423.51 236.557 422.804 235.885 422.809 234.884L422.896 218.189C422.901 217.188 423.615 216.524 424.68 216.529C425.745 216.535 426.451 217.206 426.446 218.208L426.359 234.902C426.354 235.904 425.64 236.568 424.575 236.562Z" fill="black"/>
<path d="M429.9 236.59C428.835 236.585 428.129 235.913 428.134 234.912L428.212 219.887C428.218 218.885 428.931 218.221 429.996 218.227C431.061 218.232 431.768 218.904 431.762 219.905L431.684 234.93C431.679 235.932 430.965 236.596 429.9 236.59Z" fill="black"/>
<path d="M435.226 236.618C434.161 236.612 433.454 235.941 433.459 234.939L433.529 221.584C433.534 220.582 434.248 219.918 435.313 219.924C436.378 219.929 437.084 220.601 437.079 221.602L437.009 234.958C437.004 235.96 436.291 236.624 435.226 236.618Z" fill="black"/>
<path d="M440.551 236.646C439.486 236.64 438.78 235.969 438.785 234.967L438.846 223.281C438.851 222.28 439.564 221.616 440.629 221.621C441.694 221.627 442.401 222.298 442.396 223.3L442.335 234.986C442.33 235.987 441.616 236.651 440.551 236.646Z" fill="black"/>
<path d="M445.876 236.674C444.811 236.668 444.105 235.997 444.11 234.995L444.171 223.309C444.176 222.307 444.89 221.643 445.955 221.649C447.02 221.655 447.726 222.326 447.721 223.328L447.66 235.014C447.655 236.015 446.941 236.679 445.876 236.674Z" fill="black"/>
<path d="M431.91 191.525C430.845 191.519 430.139 190.848 430.144 189.846L430.205 178.16C430.21 177.159 430.924 176.495 431.989 176.5C433.054 176.506 433.76 177.177 433.755 178.179L433.694 189.865C433.689 190.866 432.976 191.53 431.91 191.525Z" fill="black"/>
<path d="M438.976 198.24C437.911 198.234 437.205 197.563 437.21 196.561L437.306 178.197C437.311 177.196 438.024 176.532 439.089 176.537C440.154 176.543 440.861 177.214 440.856 178.216L440.76 196.58C440.755 197.581 440.041 198.245 438.976 198.24Z" fill="black"/>
<path d="M431.806 211.558C430.741 211.552 430.034 210.881 430.04 209.879L430.092 199.863C430.097 198.861 430.811 198.197 431.876 198.203C432.941 198.208 433.647 198.88 433.642 199.881L433.59 209.898C433.585 210.9 432.871 211.564 431.806 211.558Z" fill="black"/>
<path d="M373.437 171.185L357.461 171.101C356.396 171.096 355.689 170.424 355.694 169.423C355.7 168.421 356.413 167.757 357.478 167.763L373.454 167.846C374.519 167.852 375.226 168.523 375.22 169.525C375.215 170.527 374.502 171.191 373.437 171.185Z" fill="black"/>
<path d="M384.122 164.563L357.495 164.424C356.43 164.418 355.724 163.747 355.729 162.745C355.734 161.743 356.448 161.079 357.513 161.085L384.139 161.224C385.204 161.23 385.911 161.901 385.906 162.903C385.9 163.904 385.187 164.569 384.122 164.563Z" fill="black"/>
<path d="M460.452 164.963L444.476 164.879C443.411 164.873 442.704 164.202 442.709 163.2C442.714 162.199 443.428 161.535 444.493 161.54L460.469 161.624C461.534 161.63 462.24 162.301 462.235 163.303C462.23 164.304 461.517 164.968 460.452 164.963Z" fill="black"/>
<path d="M460.417 171.64L433.79 171.501C432.725 171.495 432.019 170.824 432.024 169.822C432.029 168.821 432.743 168.157 433.808 168.162L460.434 168.302C461.499 168.307 462.206 168.979 462.2 169.98C462.195 170.982 461.482 171.646 460.417 171.64Z" fill="black"/>
<path d="M460.547 146.599L435.696 146.469C434.631 146.463 433.924 145.792 433.929 144.79C433.935 143.789 434.648 143.125 435.713 143.13L460.565 143.26C461.63 143.266 462.336 143.937 462.331 144.939C462.326 145.941 461.612 146.605 460.547 146.599Z" fill="black"/>
<path d="M368.224 149.455L357.574 149.399C356.509 149.393 355.802 148.722 355.807 147.72C355.813 146.718 356.526 146.054 357.591 146.06L368.242 146.116C369.307 146.121 370.013 146.793 370.008 147.794C370.003 148.796 369.289 149.46 368.224 149.455Z" fill="black"/>
<path d="M423.174 164.768L401.873 164.656C400.808 164.65 400.102 163.979 400.107 162.977C400.112 161.976 400.825 161.312 401.891 161.317L423.192 161.429C424.257 161.434 424.963 162.106 424.958 163.107C424.953 164.109 424.239 164.773 423.174 164.768Z" fill="black"/>
<path d="M416.039 171.408L387.637 171.259C386.572 171.254 385.866 170.582 385.871 169.581C385.876 168.579 386.59 167.915 387.655 167.921L416.056 168.069C417.121 168.075 417.828 168.746 417.823 169.748C417.818 170.75 417.104 171.414 416.039 171.408Z" fill="black"/>
<path d="M414.377 149.696L385.976 149.547C384.91 149.542 384.204 148.87 384.209 147.869C384.214 146.867 384.928 146.203 385.993 146.209L414.395 146.357C415.46 146.363 416.166 147.034 416.161 148.036C416.156 149.038 415.442 149.702 414.377 149.696Z" fill="black"/>
</g>
<path d="M418.807 40.2491C425.24 59.4975 413.064 66.9402 396.7 72.0993C380.335 77.2584 365.98 78.1803 359.547 58.9319C356.902 51.0205 357.98 53.0049 356.094 41.1593C354.208 29.3136 369.402 16.0964 379.04 13.0577C389.224 9.84698 395.969 15.6048 404.379 23.1277C409.482 27.693 414.009 33.3346 418.807 40.2491Z" fill="#005BBA"/>
<path d="M411.516 42.5478C417.949 61.7963 407.405 68.7244 393.054 73.2488C378.703 77.7731 365.98 78.1803 359.547 58.9318C356.902 51.0204 357.934 53.0193 355.817 41.2463C353.7 29.4733 366.711 16.9443 375.163 14.2795C384.095 11.4638 390.303 17.3909 398.056 25.1208C402.761 29.8116 406.994 35.5459 411.516 42.5478Z" fill="#1172D8"/>
<path d="M415.731 41.3094C418.801 50.5251 417.29 56.6347 413.305 61.104C409.156 65.7562 402.134 68.8647 393.704 71.4867C385.274 74.1087 377.685 75.5444 371.476 74.1141C365.466 72.7296 360.468 68.584 357.307 59.2527C355.961 55.2797 355.596 53.8841 355.315 52.024C355.218 51.379 355.132 50.69 355.024 49.8197C354.969 49.3732 354.908 48.8791 354.836 48.3186C354.627 46.6856 354.335 44.5516 353.854 41.5429C353.008 36.2468 356.067 30.346 360.909 25.2123C365.711 20.1212 371.922 16.1595 376.607 14.7024C381.472 13.1891 385.437 13.7696 389.246 15.6021C393.155 17.4827 396.897 20.6758 401.26 24.4956C406.337 28.941 410.877 34.461 415.731 41.3094Z" stroke="black" stroke-width="3"/>
<path d="M410.888 34.1381L395.332 40.3493C394.665 40.6155 394.058 40.3571 393.815 39.7033C393.572 39.0495 393.854 38.4362 394.521 38.17L410.077 31.9588C410.744 31.6926 411.35 31.951 411.593 32.6048C411.837 33.2586 411.554 33.8719 410.888 34.1381Z" fill="black"/>
<path d="M362.633 39.5576L355.154 42.4618C354.407 42.7522 353.697 42.6019 353.38 42.0862C353.063 41.5705 353.35 41.0331 354.098 40.7427L361.577 37.8385C362.325 37.5481 363.035 37.6982 363.352 38.214C363.668 38.7297 363.381 39.2672 362.633 39.5576Z" fill="black"/>
<path d="M370.859 27.9188L369.943 28.3212L370.265 29.2679L375.523 44.7339C375.77 45.4606 376.213 46.0843 376.8 46.5288C377.387 46.9735 378.093 47.2202 378.834 47.2366L385.086 47.375L385.511 47.3844L385.825 47.0576L390.408 42.2871L390.414 42.2808L390.42 42.2744C390.958 41.696 391.335 40.9734 391.506 40.1955C391.678 39.4177 391.637 38.6173 391.389 37.8906L386.093 22.3117L385.771 21.365L384.856 21.7673L370.859 27.9188Z" fill="#005BBB" stroke="black" stroke-width="2"/>
<path d="M372.607 28.5574L385.44 22.9176L390.736 38.4965C390.922 39.0427 390.965 39.6382 390.86 40.2106C390.756 40.7829 390.508 41.3077 390.146 41.7211L386.012 46.2942L380.209 45.9584C379.697 45.9288 379.204 45.7302 378.787 45.3867C378.371 45.0432 378.051 44.5696 377.865 44.0234L372.607 28.5574Z" fill="#005BBB" stroke="#FFD500"/>
<path d="M381.878 32.5355C382.426 34.3319 383.407 35.9167 384.708 37.1069C385.582 37.9064 386.177 39.0369 386.383 40.2922C386.59 41.5475 386.394 42.844 385.833 43.9453C385.664 44.2002 385.553 44.4995 385.51 44.8162C385.291 44.6145 385.032 44.4779 384.756 44.4187C383.689 44.033 382.777 43.2229 382.188 42.136C381.598 41.0491 381.369 39.7579 381.543 38.4979C381.802 36.6223 381.59 34.6992 380.933 32.951L379.417 28.9188C379.158 28.2297 379.141 27.4541 379.369 26.7532C379.953 27.0972 380.399 27.6842 380.615 28.3923L381.878 32.5355ZM385.325 42.9379C385.642 42.0665 385.702 41.1 385.495 40.1841C385.289 39.2683 384.827 38.4529 384.18 37.8611C383.527 37.264 382.945 36.5731 382.447 35.8058C382.532 36.7544 382.51 37.7111 382.38 38.6521C382.251 39.5848 382.392 40.5413 382.781 41.377C383.17 42.2128 383.786 42.8824 384.535 43.285L383.58 40.474L384.37 40.1269L385.325 42.9379Z" fill="#FFD500"/>
<path d="M383.487 31.4498C383.274 30.5112 383.261 29.5289 383.449 28.5852C383.637 27.6414 384.021 26.7638 384.568 26.0258L389.02 39.1213L384.281 41.2037L383.58 40.4741C383.423 40.0127 383.408 39.5046 383.537 39.0336C383.667 38.5625 383.933 38.1564 384.292 37.8821L385.347 37.0768C385.439 37.0062 385.519 36.9155 385.58 36.8097C385.642 36.704 385.684 36.5853 385.706 36.4606C385.727 36.3358 385.727 36.2073 385.704 36.0826C385.682 35.9578 385.639 35.8392 385.576 35.7335C385.514 35.6278 385.434 35.5371 385.341 35.4666C385.248 35.3961 385.144 35.3472 385.034 35.3226C384.925 35.298 384.813 35.2983 384.703 35.3234C384.594 35.3486 384.491 35.398 384.399 35.469L383.487 31.4498ZM385.016 34.3442C385.365 34.3793 385.697 34.5374 385.966 34.7968C386.234 35.0563 386.426 35.4042 386.514 35.7925C386.603 36.1808 386.583 36.5904 386.459 36.9646C386.334 37.3389 386.111 37.6594 385.82 37.8818L384.765 38.687C384.566 38.8394 384.418 39.065 384.346 39.3267C384.274 39.5884 384.282 39.8707 384.369 40.127L387.923 38.5652L384.416 28.2483C384.123 29.1992 384.085 30.2289 384.306 31.2068L385.016 34.3442ZM386.063 35.2303L386.853 34.8833L387.16 35.7864L386.37 36.1335L386.063 35.2303Z" fill="#FFD500"/>
<path d="M378.898 33.4665C378.5 32.6091 377.929 31.8723 377.231 31.3177C376.534 30.7631 375.731 30.407 374.89 30.279L379.342 43.3745L384.08 41.2921L384.168 40.2154C384.011 39.754 383.721 39.3667 383.347 39.1171C382.972 38.8676 382.535 38.7707 382.107 38.8424L380.85 39.053C380.74 39.0714 380.628 39.0649 380.519 39.0337C380.411 39.0025 380.31 38.9473 380.22 38.8713C380.13 38.7952 380.055 38.6998 379.997 38.5905C379.94 38.4812 379.902 38.3601 379.886 38.2342C379.869 38.1083 379.875 37.98 379.902 37.8568C379.929 37.7335 379.977 37.6176 380.044 37.5158C380.11 37.4139 380.193 37.3281 380.289 37.2633C380.385 37.1984 380.491 37.1558 380.601 37.1378L378.898 33.4665ZM379.479 36.7773C379.241 37.0707 379.089 37.4417 379.043 37.839C378.998 38.2362 379.062 38.6402 379.227 38.9951C379.391 39.35 379.648 39.6383 379.961 39.8201C380.274 40.002 380.629 40.0684 380.976 40.0103L382.233 39.7997C382.471 39.7599 382.714 39.8137 382.922 39.9523C383.13 40.091 383.291 40.3062 383.378 40.5625L379.824 42.1243L376.317 31.8074C377.096 32.2876 377.733 33.0205 378.148 33.9132L379.479 36.7773ZM379.228 38.2341L378.438 38.5812L378.745 39.4843L379.535 39.1372L379.228 38.2341Z" fill="#FFD500"/>
<path d="M354.655 62.896C354.108 61.1153 355.267 59.1974 357.08 58.7971C364.153 57.2351 381.01 52.7089 398.105 42.2005C418.929 29.4002 422.391 34.8061 422.784 35.6593C422.817 35.7307 422.841 35.8017 422.87 35.8749L430.1 54.1096C431.167 56.8026 427.342 61.8851 424.474 62.1866C418.821 62.7807 409.897 64.6282 396.096 69.3577C383.798 73.5719 376.086 77.8162 371.257 81.4037C368.707 83.2979 360.518 81.9589 359.593 78.9506L354.655 62.896Z" fill="#FED500"/>
<path fill-rule="evenodd" clip-rule="evenodd" d="M367.92 82.9964C369.579 83.0366 371.091 82.766 371.956 82.1237C376.718 78.5862 384.282 74.4099 396.283 70.2534C394.768 70.7399 393.186 71.2649 391.533 71.8311C380.228 75.7055 372.798 79.6051 367.92 82.9964ZM422.672 63.2228C423.57 63.0908 424.403 62.9862 425.175 62.9051C428.043 62.6036 431.868 57.5212 430.8 54.8282L423.572 36.5943C423.562 36.5715 423.554 36.5488 423.545 36.5263C423.526 36.4767 423.508 36.4278 423.485 36.3787C423.182 35.7208 421.054 32.3556 410.546 36.7202C416.556 35.325 417.979 37.6039 418.223 38.1329C418.245 38.182 418.264 38.231 418.283 38.2805C418.291 38.303 418.3 38.3257 418.309 38.3485L425.538 56.5824C426.276 58.4436 424.677 61.4461 422.672 63.2228ZM368.092 56.7531C363.765 58.1022 360.2 58.9835 357.78 59.518C357.161 59.6547 356.618 59.9686 356.193 60.3937C359.372 59.5797 363.45 58.4014 368.092 56.7531Z" fill="#FD9808"/>
<path d="M373.159 77.0617L361.969 81.5122C361.223 81.8089 360.491 81.5863 360.139 80.9558C359.787 80.3252 360.049 79.7071 360.795 79.4104L371.985 74.9599C372.731 74.6633 373.463 74.8858 373.815 75.5163C374.167 76.1468 373.904 76.765 373.159 77.0617Z" fill="black"/>
<path d="M430.015 62.4726C430.015 62.4726 408.506 66.3265 395.639 71.8888C382.773 77.4511 368.553 86.267 368.553 86.267C365.072 87.6517 361.046 86.4275 359.402 83.4848L355.88 77.179C354.941 75.4975 355.055 73.5254 356.019 71.9861C353.999 71.6336 352.124 70.4528 351.185 68.7712L350.011 66.6693C348.367 63.7265 349.811 60.3265 353.292 58.9418L415.387 33.2624C418.868 31.8778 423.736 34.077 425.379 37.0198L426.553 39.1218C427.492 40.8033 427.378 42.7754 426.414 44.3147C428.435 44.6671 429.538 45.8262 430.477 47.5077L433.297 54.7451C434.94 57.6877 433.496 61.0879 430.015 62.4726ZM360.992 70.008C361.344 70.6386 361.082 71.2567 360.336 71.5534C358.222 72.3942 357.369 74.4032 358.367 76.1899L361.889 82.4957C362.887 84.2824 365.266 85.0058 367.379 84.1651C367.379 84.1651 375.335 77.3848 394.465 69.7868C413.596 62.1888 428.841 60.3705 428.841 60.3705C430.955 59.5298 431.808 57.5208 430.81 55.7341L427.991 48.4967C426.993 46.71 425.385 46.0084 423.272 46.8491C422.526 47.1458 421.794 46.9232 421.441 46.2927C421.089 45.6621 421.352 45.0439 422.098 44.7472C424.211 43.9065 425.065 41.8975 424.067 40.1108L422.893 38.0088C421.895 36.2221 418.675 34.5237 416.561 35.3644L354.466 61.0438C352.353 61.8845 351.499 63.8936 352.497 65.6803L353.671 67.7823C354.669 69.5689 357.048 70.2923 359.162 69.4516C359.908 69.1548 360.64 69.3774 360.992 70.008Z" fill="black"/>
<path d="M423.386 47.1595L416.74 49.891C416.076 50.1641 415.443 49.82 415.158 49.0305C414.873 48.2411 415.126 47.5328 415.791 47.2596L422.436 44.5281C423.101 44.255 423.734 44.5991 424.019 45.3886C424.303 46.178 424.05 46.8864 423.386 47.1595Z" fill="black"/>
<path d="M422.652 37.3777L407.145 43.751C406.481 44.0242 405.848 43.68 405.563 42.8906C405.278 42.1012 405.531 41.3929 406.196 41.1197L421.702 34.7465C422.366 34.4733 422.999 34.8175 423.284 35.6069C423.569 36.3963 423.316 37.1046 422.652 37.3777Z" fill="black"/>
<path d="M378.27 69.8905L359.621 77.3078C358.875 77.6045 358.143 77.3819 357.791 76.7514C357.439 76.1209 357.701 75.5027 358.447 75.206L377.096 67.7887C377.842 67.492 378.574 67.7145 378.926 68.3451C379.278 68.9756 379.016 69.5938 378.27 69.8905Z" fill="black"/>
<path d="M361.797 64.8809L354.338 67.8479C353.592 68.1446 352.86 67.9219 352.507 67.2914C352.155 66.6608 352.418 66.0427 353.164 65.746L360.623 62.779C361.369 62.4823 362.101 62.7048 362.454 63.3354C362.806 63.9659 362.543 64.5842 361.797 64.8809Z" fill="black"/>
<path d="M402.997 65.1945L383.104 73.1062C382.358 73.4029 381.626 73.1804 381.274 72.5499C380.922 71.9193 381.185 71.3012 381.931 71.0046L401.823 63.0928C402.569 62.7961 403.301 63.0187 403.653 63.6492C404.005 64.2797 403.742 64.8978 402.997 65.1945Z" fill="black"/>
<path d="M394.122 52.0248L374.23 59.9366C373.484 60.2333 372.752 60.0107 372.4 59.3802C372.047 58.7497 372.31 58.1316 373.056 57.8349L392.948 49.9231C393.694 49.6264 394.426 49.849 394.778 50.4795C395.13 51.11 394.868 51.7281 394.122 52.0248Z" fill="black"/>
<path d="M21.28 143C18.5947 143 15.884 143 13.148 143C10.412 143 7.70133 143 5.016 143C4.864 143 4.712 142.975 4.56 142.924C4.45867 142.823 4.35733 142.721 4.256 142.62C4.20533 142.519 4.18 142.367 4.18 142.164C4.18 138.111 4.18 134.083 4.18 130.08C4.18 126.027 4.18 121.973 4.18 117.92C4.18 113.867 4.18 109.813 4.18 105.76C4.18 101.707 4.18 97.6787 4.18 93.676H22.42L21.28 94.968C21.28 97.7547 21.2547 100.567 21.204 103.404C21.204 106.241 21.2293 109.053 21.28 111.84C21.28 114.475 21.28 117.109 21.28 119.744C21.28 122.379 21.28 125.013 21.28 127.648C21.28 130.283 21.28 132.917 21.28 135.552C21.28 136.92 21.28 138.237 21.28 139.504C21.28 140.771 21.28 141.936 21.28 143ZM0.38 89.8H42.408C42.6613 89.8 42.8387 89.8507 42.94 89.952C43.0413 90.0027 43.1173 90.104 43.168 90.256C43.2693 90.3573 43.32 90.484 43.32 90.636C43.32 91.8013 43.32 93.372 43.32 95.348C43.32 97.2733 43.32 99.1987 43.32 101.124C43.32 103.049 43.32 104.595 43.32 105.76H1.292C1.08933 105.76 0.912 105.735 0.76 105.684C0.658667 105.583 0.557333 105.481 0.456 105.38C0.405333 105.228 0.38 105.076 0.38 104.924C0.38 102.391 0.38 99.8573 0.38 97.324C0.38 94.7907 0.38 92.2827 0.38 89.8ZM12.54 112.6H37.848C38.152 112.6 38.38 112.676 38.532 112.828C38.684 112.98 38.76 113.183 38.76 113.436C38.76 114.601 38.76 116.02 38.76 117.692C38.76 119.364 38.76 121.061 38.76 122.784C38.76 124.456 38.76 125.875 38.76 127.04H12.54V112.6ZM53.9303 133.652V126.508C53.9303 125.951 53.9303 125.419 53.9303 124.912C53.9303 124.405 53.9303 123.899 53.9303 123.392C53.9303 122.835 53.9303 122.303 53.9303 121.796C53.9303 121.188 53.9303 120.605 53.9303 120.048C53.9303 119.44 53.9303 118.832 53.9303 118.224C53.9303 117.616 53.9303 117.008 53.9303 116.4H52.6383C51.8276 116.4 51.017 116.4 50.2063 116.4C49.4463 116.4 48.6863 116.4 47.9263 116.4C47.673 116.4 47.4703 116.324 47.3183 116.172C47.1663 116.02 47.0903 115.817 47.0903 115.564C47.0903 113.183 47.0903 110.801 47.0903 108.42C47.0903 105.988 47.0903 103.581 47.0903 101.2C47.0903 101.2 47.597 101.2 48.6103 101.2C49.6236 101.2 50.865 101.2 52.3343 101.2C53.8543 101.2 55.4756 101.2 57.1983 101.2C58.9716 101.2 60.6183 101.2 62.1383 101.2C63.6583 101.2 64.8996 101.2 65.8623 101.2C66.8756 101.2 67.3823 101.2 67.3823 101.2C67.3823 101.2 67.509 101.58 67.7623 102.34C68.0156 103.049 68.3196 103.936 68.6743 105C69.029 106.064 69.3836 107.153 69.7383 108.268C70.093 109.332 70.397 110.244 70.6503 111.004C70.9036 111.713 71.0303 112.068 71.0303 112.068C71.0303 113.639 71.0303 115.285 71.0303 117.008C71.0303 118.731 71.0303 120.504 71.0303 122.328C71.0303 124.152 71.0303 126.027 71.0303 127.952C71.0303 129.827 71.0303 131.727 71.0303 133.652H53.9303ZM68.9783 110.776H71.7903C73.2596 107.027 75.033 104.367 77.1103 102.796C79.2383 101.225 81.6196 100.44 84.2543 100.44C85.4196 100.44 86.3823 100.567 87.1423 100.82C87.9023 101.023 88.409 101.251 88.6623 101.504C88.7636 101.555 88.8143 101.656 88.8143 101.808C88.865 101.909 88.8903 102.061 88.8903 102.264C88.8903 105.405 88.8903 108.572 88.8903 111.764C88.8903 114.905 88.8903 118.047 88.8903 121.188H87.3703C86.0023 120.732 84.609 120.403 83.1903 120.2C81.8223 119.947 80.505 119.82 79.2383 119.82C78.1236 119.82 77.009 119.896 75.8943 120.048C74.7796 120.2 73.665 120.453 72.5503 120.808C71.4863 121.112 70.5236 121.543 69.6623 122.1L68.9783 110.776ZM47.0903 127.8H83.4943C83.697 127.8 83.849 127.851 83.9503 127.952C84.0516 128.003 84.1276 128.079 84.1783 128.18C84.2796 128.281 84.3303 128.433 84.3303 128.636C84.3303 129.801 84.3303 131.296 84.3303 133.12C84.3303 134.893 84.3303 136.692 84.3303 138.516C84.3303 140.34 84.3303 141.835 84.3303 143H47.9263C47.673 143 47.4703 142.924 47.3183 142.772C47.1663 142.62 47.0903 142.417 47.0903 142.164C47.0903 140.999 47.0903 139.504 47.0903 137.68C47.0903 135.856 47.0903 134.032 47.0903 132.208C47.0903 130.384 47.0903 128.915 47.0903 127.8ZM114.093 99.68C118.45 99.68 122.149 100.415 125.189 101.884C128.229 103.353 130.534 105.456 132.105 108.192C133.675 110.877 134.461 114.145 134.461 117.996V125.444C134.461 125.596 134.41 125.748 134.309 125.9C134.258 126.001 134.182 126.103 134.081 126.204C133.979 126.255 133.827 126.28 133.625 126.28H115.613C114.954 126.28 114.295 126.28 113.637 126.28C112.978 126.28 112.319 126.28 111.661 126.28H106.721V118.68H119.261C119.261 118.528 119.261 118.376 119.261 118.224C119.261 118.072 119.261 117.844 119.261 117.54C119.261 116.679 119.159 115.995 118.957 115.488C118.805 114.931 118.551 114.475 118.197 114.12C117.842 113.715 117.386 113.436 116.829 113.284C116.271 113.081 115.638 112.98 114.929 112.98C113.611 112.98 112.547 113.385 111.737 114.196C110.926 114.956 110.521 115.969 110.521 117.236V126.28C110.521 126.989 110.597 127.673 110.749 128.332C110.901 128.94 111.179 129.447 111.585 129.852C112.041 130.308 112.775 130.663 113.789 130.916C114.802 131.169 116.474 131.271 118.805 131.22C120.274 131.22 121.693 131.144 123.061 130.992C124.479 130.84 125.898 130.612 127.317 130.308C128.735 130.004 130.23 129.649 131.801 129.244H133.321C133.321 131.271 133.321 133.221 133.321 135.096C133.321 136.92 133.321 138.845 133.321 140.872C133.321 140.973 133.295 141.075 133.245 141.176C133.245 141.277 133.194 141.379 133.093 141.48C132.687 141.885 131.75 142.341 130.281 142.848C128.862 143.304 127.063 143.684 124.885 143.988C122.757 144.343 120.325 144.52 117.589 144.52C113.637 144.52 110.166 144.115 107.177 143.304C104.238 142.544 101.781 141.404 99.8046 139.884C97.8286 138.313 96.334 136.388 95.3206 134.108C94.3073 131.777 93.8006 129.092 93.8006 126.052V118.148C93.8006 115.412 94.2566 112.929 95.1686 110.7C96.1313 108.42 97.4993 106.469 99.2726 104.848C101.046 103.176 103.174 101.909 105.657 101.048C108.19 100.136 111.002 99.68 114.093 99.68ZM159.663 99.68C164.02 99.68 167.719 100.415 170.759 101.884C173.799 103.353 176.104 105.456 177.675 108.192C179.246 110.877 180.031 114.145 180.031 117.996V125.444C180.031 125.596 179.98 125.748 179.879 125.9C179.828 126.001 179.752 126.103 179.651 126.204C179.55 126.255 179.398 126.28 179.195 126.28H161.183C160.524 126.28 159.866 126.28 159.207 126.28C158.548 126.28 157.89 126.28 157.231 126.28H152.291V118.68H164.831C164.831 118.528 164.831 118.376 164.831 118.224C164.831 118.072 164.831 117.844 164.831 117.54C164.831 116.679 164.73 115.995 164.527 115.488C164.375 114.931 164.122 114.475 163.767 114.12C163.412 113.715 162.956 113.436 162.399 113.284C161.842 113.081 161.208 112.98 160.499 112.98C159.182 112.98 158.118 113.385 157.307 114.196C156.496 114.956 156.091 115.969 156.091 117.236V126.28C156.091 126.989 156.167 127.673 156.319 128.332C156.471 128.94 156.75 129.447 157.155 129.852C157.611 130.308 158.346 130.663 159.359 130.916C160.372 131.169 162.044 131.271 164.375 131.22C165.844 131.22 167.263 131.144 168.631 130.992C170.05 130.84 171.468 130.612 172.887 130.308C174.306 130.004 175.8 129.649 177.371 129.244H178.891C178.891 131.271 178.891 133.221 178.891 135.096C178.891 136.92 178.891 138.845 178.891 140.872C178.891 140.973 178.866 141.075 178.815 141.176C178.815 141.277 178.764 141.379 178.663 141.48C178.258 141.885 177.32 142.341 175.851 142.848C174.432 143.304 172.634 143.684 170.455 143.988C168.327 144.343 165.895 144.52 163.159 144.52C159.207 144.52 155.736 144.115 152.747 143.304C149.808 142.544 147.351 141.404 145.375 139.884C143.399 138.313 141.904 136.388 140.891 134.108C139.878 131.777 139.371 129.092 139.371 126.052V118.148C139.371 115.412 139.827 112.929 140.739 110.7C141.702 108.42 143.07 106.469 144.843 104.848C146.616 103.176 148.744 101.909 151.227 101.048C153.76 100.136 156.572 99.68 159.663 99.68ZM184.561 101.2H224.765C224.968 101.2 225.12 101.251 225.221 101.352C225.323 101.403 225.399 101.479 225.449 101.58C225.551 101.681 225.601 101.833 225.601 102.036V115.64C224.892 116.045 224.183 116.476 223.473 116.932C222.764 117.337 222.055 117.743 221.345 118.148C220.636 118.553 219.927 118.984 219.217 119.44C218.508 119.845 217.773 120.276 217.013 120.732C216.304 121.137 215.595 121.543 214.885 121.948C213.619 122.759 212.327 123.443 211.009 124C209.692 124.507 208.349 124.887 206.981 125.14V126.66C208.552 126.66 210.123 126.66 211.693 126.66C213.264 126.66 214.835 126.66 216.405 126.66H224.765C225.019 126.66 225.221 126.736 225.373 126.888C225.525 127.04 225.601 127.243 225.601 127.496C225.601 130.08 225.601 132.664 225.601 135.248C225.601 137.832 225.601 140.416 225.601 143H185.397C185.245 143 185.093 142.975 184.941 142.924C184.84 142.823 184.739 142.721 184.637 142.62C184.587 142.519 184.561 142.367 184.561 142.164V129.32C185.777 128.56 186.993 127.8 188.209 127.04C189.425 126.28 190.616 125.52 191.781 124.76C192.997 123.949 194.213 123.164 195.429 122.404C196.899 121.492 198.292 120.808 199.609 120.352C200.927 119.845 202.421 119.415 204.093 119.06V117.54C202.523 117.54 200.977 117.54 199.457 117.54C197.937 117.54 196.392 117.54 194.821 117.54H185.397C185.245 117.54 185.093 117.515 184.941 117.464C184.84 117.363 184.739 117.261 184.637 117.16C184.587 117.008 184.561 116.856 184.561 116.704C184.561 114.12 184.561 111.637 184.561 109.256C184.561 106.824 184.561 104.139 184.561 101.2ZM250.804 99.68C255.161 99.68 258.86 100.415 261.9 101.884C264.94 103.353 267.245 105.456 268.816 108.192C270.386 110.877 271.172 114.145 271.172 117.996V125.444C271.172 125.596 271.121 125.748 271.02 125.9C270.969 126.001 270.893 126.103 270.792 126.204C270.69 126.255 270.538 126.28 270.336 126.28H252.324C251.665 126.28 251.006 126.28 250.348 126.28C249.689 126.28 249.03 126.28 248.372 126.28H243.432V118.68H255.972C255.972 118.528 255.972 118.376 255.972 118.224C255.972 118.072 255.972 117.844 255.972 117.54C255.972 116.679 255.87 115.995 255.668 115.488C255.516 114.931 255.262 114.475 254.908 114.12C254.553 113.715 254.097 113.436 253.54 113.284C252.982 113.081 252.349 112.98 251.64 112.98C250.322 112.98 249.258 113.385 248.448 114.196C247.637 114.956 247.232 115.969 247.232 117.236V126.28C247.232 126.989 247.308 127.673 247.46 128.332C247.612 128.94 247.89 129.447 248.296 129.852C248.752 130.308 249.486 130.663 250.5 130.916C251.513 131.169 253.185 131.271 255.516 131.22C256.985 131.22 258.404 131.144 259.772 130.992C261.19 130.84 262.609 130.612 264.028 130.308C265.446 130.004 266.941 129.649 268.512 129.244H270.032C270.032 131.271 270.032 133.221 270.032 135.096C270.032 136.92 270.032 138.845 270.032 140.872C270.032 140.973 270.006 141.075 269.956 141.176C269.956 141.277 269.905 141.379 269.804 141.48C269.398 141.885 268.461 142.341 266.992 142.848C265.573 143.304 263.774 143.684 261.596 143.988C259.468 144.343 257.036 144.52 254.3 144.52C250.348 144.52 246.877 144.115 243.888 143.304C240.949 142.544 238.492 141.404 236.516 139.884C234.54 138.313 233.045 136.388 232.032 134.108C231.018 131.777 230.512 129.092 230.512 126.052V118.148C230.512 115.412 230.968 112.929 231.88 110.7C232.842 108.42 234.21 106.469 235.984 104.848C237.757 103.176 239.885 101.909 242.368 101.048C244.901 100.136 247.713 99.68 250.804 99.68ZM21.28 234C18.5947 234 15.884 234 13.148 234C10.412 234 7.70133 234 5.016 234C4.864 234 4.712 233.975 4.56 233.924C4.45867 233.823 4.35733 233.721 4.256 233.62C4.20533 233.519 4.18 233.367 4.18 233.164C4.18 229.111 4.18 225.083 4.18 221.08C4.18 217.027 4.18 212.973 4.18 208.92C4.18 204.867 4.18 200.813 4.18 196.76C4.18 192.707 4.18 188.679 4.18 184.676H22.42L21.28 185.968C21.28 188.755 21.2547 191.567 21.204 194.404C21.204 197.241 21.2293 200.053 21.28 202.84C21.28 205.475 21.28 208.109 21.28 210.744C21.28 213.379 21.28 216.013 21.28 218.648C21.28 221.283 21.28 223.917 21.28 226.552C21.28 227.92 21.28 229.237 21.28 230.504C21.28 231.771 21.28 232.936 21.28 234ZM0.38 180.8H42.408C42.6613 180.8 42.8387 180.851 42.94 180.952C43.0413 181.003 43.1173 181.104 43.168 181.256C43.2693 181.357 43.32 181.484 43.32 181.636C43.32 182.801 43.32 184.372 43.32 186.348C43.32 188.273 43.32 190.199 43.32 192.124C43.32 194.049 43.32 195.595 43.32 196.76H1.292C1.08933 196.76 0.912 196.735 0.76 196.684C0.658667 196.583 0.557333 196.481 0.456 196.38C0.405333 196.228 0.38 196.076 0.38 195.924C0.38 193.391 0.38 190.857 0.38 188.324C0.38 185.791 0.38 183.283 0.38 180.8ZM12.54 203.6H37.848C38.152 203.6 38.38 203.676 38.532 203.828C38.684 203.98 38.76 204.183 38.76 204.436C38.76 205.601 38.76 207.02 38.76 208.692C38.76 210.364 38.76 212.061 38.76 213.784C38.76 215.456 38.76 216.875 38.76 218.04H12.54V203.6ZM68.3703 190.68C71.7143 190.68 74.653 191.06 77.1863 191.82C79.7703 192.58 81.949 193.72 83.7223 195.24C85.4956 196.76 86.8383 198.66 87.7503 200.94C88.6623 203.22 89.1183 205.88 89.1183 208.92V217.28C89.1183 221.283 88.3076 224.652 86.6863 227.388C85.065 230.073 82.709 232.1 79.6183 233.468C76.5276 234.836 72.7783 235.52 68.3703 235.52C65.0263 235.52 62.0623 235.14 59.4783 234.38C56.945 233.62 54.7916 232.48 53.0183 230.96C51.245 229.44 49.9023 227.54 48.9903 225.26C48.0783 222.98 47.6223 220.32 47.6223 217.28V208.92C47.6223 204.867 48.433 201.497 50.0543 198.812C51.6756 196.127 54.0316 194.1 57.1223 192.732C60.213 191.364 63.9623 190.68 68.3703 190.68ZM68.3703 205.88C67.4583 205.88 66.749 206.007 66.2423 206.26C65.7356 206.463 65.3556 206.843 65.1023 207.4C64.8996 207.957 64.7983 208.717 64.7983 209.68V216.52C64.7983 217.229 64.849 217.837 64.9503 218.344C65.1023 218.8 65.3303 219.18 65.6343 219.484C65.9383 219.788 66.293 220.016 66.6983 220.168C67.1543 220.269 67.7116 220.32 68.3703 220.32C69.2823 220.32 69.9916 220.219 70.4983 220.016C71.0556 219.763 71.4356 219.357 71.6383 218.8C71.841 218.243 71.9423 217.483 71.9423 216.52V209.68C71.9423 208.971 71.8663 208.388 71.7143 207.932C71.613 207.425 71.4103 207.02 71.1063 206.716C70.8023 206.412 70.4223 206.209 69.9663 206.108C69.561 205.956 69.029 205.88 68.3703 205.88ZM99.5006 224.652V217.508C99.5006 216.951 99.5006 216.419 99.5006 215.912C99.5006 215.405 99.5006 214.899 99.5006 214.392C99.5006 213.835 99.5006 213.303 99.5006 212.796C99.5006 212.188 99.5006 211.605 99.5006 211.048C99.5006 210.44 99.5006 209.832 99.5006 209.224C99.5006 208.616 99.5006 208.008 99.5006 207.4H98.2086C97.398 207.4 96.5873 207.4 95.7766 207.4C95.0166 207.4 94.2566 207.4 93.4966 207.4C93.2433 207.4 93.0406 207.324 92.8886 207.172C92.7366 207.02 92.6606 206.817 92.6606 206.564C92.6606 204.183 92.6606 201.801 92.6606 199.42C92.6606 196.988 92.6606 194.581 92.6606 192.2C92.6606 192.2 93.1673 192.2 94.1806 192.2C95.194 192.2 96.4353 192.2 97.9046 192.2C99.4246 192.2 101.046 192.2 102.769 192.2C104.542 192.2 106.189 192.2 107.709 192.2C109.229 192.2 110.47 192.2 111.433 192.2C112.446 192.2 112.953 192.2 112.953 192.2C112.953 192.2 113.079 192.58 113.333 193.34C113.586 194.049 113.89 194.936 114.245 196C114.599 197.064 114.954 198.153 115.309 199.268C115.663 200.332 115.967 201.244 116.221 202.004C116.474 202.713 116.601 203.068 116.601 203.068C116.601 204.639 116.601 206.285 116.601 208.008C116.601 209.731 116.601 211.504 116.601 213.328C116.601 215.152 116.601 217.027 116.601 218.952C116.601 220.827 116.601 222.727 116.601 224.652H99.5006ZM114.549 201.776H117.361C118.83 198.027 120.603 195.367 122.681 193.796C124.809 192.225 127.19 191.44 129.825 191.44C130.99 191.44 131.953 191.567 132.713 191.82C133.473 192.023 133.979 192.251 134.233 192.504C134.334 192.555 134.385 192.656 134.385 192.808C134.435 192.909 134.461 193.061 134.461 193.264C134.461 196.405 134.461 199.572 134.461 202.764C134.461 205.905 134.461 209.047 134.461 212.188H132.941C131.573 211.732 130.179 211.403 128.761 211.2C127.393 210.947 126.075 210.82 124.809 210.82C123.694 210.82 122.579 210.896 121.465 211.048C120.35 211.2 119.235 211.453 118.121 211.808C117.057 212.112 116.094 212.543 115.233 213.1L114.549 201.776ZM92.6606 218.8H129.065C129.267 218.8 129.419 218.851 129.521 218.952C129.622 219.003 129.698 219.079 129.749 219.18C129.85 219.281 129.901 219.433 129.901 219.636C129.901 220.801 129.901 222.296 129.901 224.12C129.901 225.893 129.901 227.692 129.901 229.516C129.901 231.34 129.901 232.835 129.901 234H93.4966C93.2433 234 93.0406 233.924 92.8886 233.772C92.7366 233.62 92.6606 233.417 92.6606 233.164C92.6606 231.999 92.6606 230.504 92.6606 228.68C92.6606 226.856 92.6606 225.032 92.6606 223.208C92.6606 221.384 92.6606 219.915 92.6606 218.8ZM202.117 234C199.381 234 196.645 234 193.909 234C191.224 234 188.513 234 185.777 234C185.524 234 185.321 233.924 185.169 233.772C185.017 233.569 184.941 233.367 184.941 233.164C184.941 229.111 184.941 225.057 184.941 221.004C184.941 216.951 184.941 212.923 184.941 208.92C184.941 204.867 184.941 200.813 184.941 196.76C184.941 192.707 184.941 188.653 184.941 184.6H202.573L202.117 185.436C202.117 188.02 202.117 190.629 202.117 193.264C202.117 195.848 202.117 198.457 202.117 201.092C202.117 203.879 202.117 206.691 202.117 209.528C202.117 212.315 202.117 215.101 202.117 217.888C202.117 220.675 202.117 223.487 202.117 226.324C202.117 227.692 202.117 229.035 202.117 230.352C202.117 231.619 202.117 232.835 202.117 234ZM182.661 180.8C187.069 180.8 191.477 180.8 195.885 180.8C200.344 180.8 204.777 180.8 209.185 180.8C211.364 180.8 213.34 181.053 215.113 181.56C216.887 182.067 218.432 182.827 219.749 183.84C221.117 184.853 222.257 186.12 223.169 187.64C224.132 189.109 224.841 190.832 225.297 192.808C225.753 194.733 225.981 196.912 225.981 199.344V203.904C225.981 206.843 225.601 209.477 224.841 211.808C224.132 214.139 223.043 216.115 221.573 217.736C220.155 219.307 218.407 220.523 216.329 221.384C214.303 222.195 211.947 222.6 209.261 222.6C207.133 222.6 204.98 222.6 202.801 222.6C200.673 222.6 198.545 222.6 196.417 222.6L195.581 223.284V208.16C197.051 208.16 198.495 208.16 199.913 208.16C201.383 208.16 202.827 208.16 204.245 208.16C205.107 208.16 205.816 208.109 206.373 208.008C206.931 207.856 207.361 207.628 207.665 207.324C207.969 207.02 208.172 206.589 208.273 206.032C208.425 205.475 208.501 204.765 208.501 203.904V199.876C208.501 199.065 208.425 198.432 208.273 197.976C208.121 197.469 207.919 197.089 207.665 196.836C207.311 196.431 206.855 196.203 206.297 196.152C205.791 196.051 205.208 196 204.549 196C202.219 196 199.888 196 197.557 196C195.227 196 192.871 196 190.489 196C188.159 196 185.828 196 183.497 196C183.244 196 183.041 195.924 182.889 195.772C182.737 195.569 182.661 195.367 182.661 195.164C182.661 192.783 182.661 190.401 182.661 188.02C182.661 185.588 182.661 183.181 182.661 180.8ZM250.804 190.68C255.161 190.68 258.86 191.415 261.9 192.884C264.94 194.353 267.245 196.456 268.816 199.192C270.386 201.877 271.172 205.145 271.172 208.996V216.444C271.172 216.596 271.121 216.748 271.02 216.9C270.969 217.001 270.893 217.103 270.792 217.204C270.69 217.255 270.538 217.28 270.336 217.28H252.324C251.665 217.28 251.006 217.28 250.348 217.28C249.689 217.28 249.03 217.28 248.372 217.28H243.432V209.68H255.972C255.972 209.528 255.972 209.376 255.972 209.224C255.972 209.072 255.972 208.844 255.972 208.54C255.972 207.679 255.87 206.995 255.668 206.488C255.516 205.931 255.262 205.475 254.908 205.12C254.553 204.715 254.097 204.436 253.54 204.284C252.982 204.081 252.349 203.98 251.64 203.98C250.322 203.98 249.258 204.385 248.448 205.196C247.637 205.956 247.232 206.969 247.232 208.236V217.28C247.232 217.989 247.308 218.673 247.46 219.332C247.612 219.94 247.89 220.447 248.296 220.852C248.752 221.308 249.486 221.663 250.5 221.916C251.513 222.169 253.185 222.271 255.516 222.22C256.985 222.22 258.404 222.144 259.772 221.992C261.19 221.84 262.609 221.612 264.028 221.308C265.446 221.004 266.941 220.649 268.512 220.244H270.032C270.032 222.271 270.032 224.221 270.032 226.096C270.032 227.92 270.032 229.845 270.032 231.872C270.032 231.973 270.006 232.075 269.956 232.176C269.956 232.277 269.905 232.379 269.804 232.48C269.398 232.885 268.461 233.341 266.992 233.848C265.573 234.304 263.774 234.684 261.596 234.988C259.468 235.343 257.036 235.52 254.3 235.52C250.348 235.52 246.877 235.115 243.888 234.304C240.949 233.544 238.492 232.404 236.516 230.884C234.54 229.313 233.045 227.388 232.032 225.108C231.018 222.777 230.512 220.092 230.512 217.052V209.148C230.512 206.412 230.968 203.929 231.88 201.7C232.842 199.42 234.21 197.469 235.984 195.848C237.757 194.176 239.885 192.909 242.368 192.048C244.901 191.136 247.713 190.68 250.804 190.68ZM314.994 206.64C314.994 207.603 314.994 208.565 314.994 209.528C314.994 210.491 314.994 211.453 314.994 212.416C314.994 213.379 314.994 214.341 314.994 215.304C314.994 216.267 314.994 217.229 314.994 218.192C314.994 218.547 315.07 218.851 315.222 219.104C315.374 219.307 315.627 219.408 315.982 219.408C316.033 219.408 316.058 219.408 316.058 219.408C316.109 219.408 316.159 219.408 316.21 219.408C316.261 219.408 316.311 219.408 316.362 219.408H318.262C318.262 221.688 318.262 223.993 318.262 226.324C318.262 228.604 318.262 230.884 318.262 233.164C318.262 233.417 318.186 233.62 318.034 233.772C317.882 233.924 317.679 234 317.426 234C317.173 234 316.463 234 315.298 234C314.183 234 313.195 234 312.334 234C310.611 234 308.914 233.797 307.242 233.392C305.621 232.936 304.151 232.277 302.834 231.416C301.567 230.504 300.554 229.364 299.794 227.996C299.034 226.577 298.654 224.905 298.654 222.98C298.654 221.257 298.654 219.535 298.654 217.812C298.654 216.039 298.654 214.291 298.654 212.568C298.654 212.163 298.654 211.783 298.654 211.428C298.654 211.023 298.654 210.643 298.654 210.288C298.654 209.883 298.654 209.477 298.654 209.072C298.654 208.008 298.477 207.172 298.122 206.564C297.767 205.905 297.134 205.449 296.222 205.196C295.31 204.892 293.967 204.74 292.194 204.74C290.674 204.74 289.129 204.816 287.558 204.968C286.038 205.12 284.493 205.323 282.922 205.576C281.402 205.829 279.882 206.133 278.362 206.488H276.842C276.842 204.411 276.842 202.384 276.842 200.408C276.842 198.381 276.842 196.355 276.842 194.328C276.842 194.125 276.867 193.973 276.918 193.872C276.969 193.72 277.019 193.619 277.07 193.568C277.425 193.213 278.438 192.859 280.11 192.504C281.833 192.099 283.935 191.769 286.418 191.516C288.951 191.212 291.561 191.06 294.246 191.06C297.843 191.06 300.934 191.364 303.518 191.972C306.153 192.58 308.306 193.543 309.978 194.86C311.701 196.127 312.967 197.748 313.778 199.724C314.589 201.649 314.994 203.955 314.994 206.64ZM290.902 221.004C290.902 221.865 291.079 222.473 291.434 222.828C291.839 223.183 292.447 223.36 293.258 223.36C294.17 223.36 295.006 223.259 295.766 223.056C296.526 222.853 297.235 222.575 297.894 222.22C298.603 221.815 299.287 221.333 299.946 220.776L300.934 228.148H298.426C297.666 229.516 296.779 230.707 295.766 231.72C294.753 232.683 293.537 233.443 292.118 234C290.699 234.507 289.027 234.76 287.102 234.76C284.721 234.76 282.643 234.355 280.87 233.544C279.097 232.683 277.729 231.467 276.766 229.896C275.803 228.325 275.322 226.425 275.322 224.196V221.156C275.322 219.332 275.575 217.711 276.082 216.292C276.639 214.823 277.425 213.581 278.438 212.568C279.451 211.555 280.718 210.795 282.238 210.288C283.758 209.781 285.506 209.528 287.482 209.528C289.458 209.528 291.333 209.528 293.106 209.528C294.879 209.528 296.501 209.528 297.97 209.528C299.439 209.528 300.681 209.528 301.694 209.528C302.099 209.528 302.403 209.68 302.606 209.984C302.809 210.288 302.935 210.972 302.986 212.036C303.087 213.1 303.138 214.797 303.138 217.128C302.074 217.128 300.985 217.128 299.87 217.128C298.806 217.128 297.717 217.128 296.602 217.128C295.538 217.128 294.474 217.128 293.41 217.128C293.005 217.128 292.65 217.179 292.346 217.28C292.042 217.381 291.763 217.559 291.51 217.812C291.307 218.015 291.155 218.268 291.054 218.572C290.953 218.876 290.902 219.231 290.902 219.636V221.004ZM346.276 190.832C348.354 190.832 350.406 190.959 352.432 191.212C354.459 191.415 356.207 191.693 357.676 192.048C359.196 192.403 360.159 192.783 360.564 193.188C360.666 193.239 360.716 193.34 360.716 193.492C360.767 193.593 360.792 193.695 360.792 193.796C360.792 196.127 360.792 198.457 360.792 200.788C360.792 203.119 360.792 205.475 360.792 207.856H359.272C357.246 207.147 355.244 206.665 353.268 206.412C351.292 206.159 349.418 206.032 347.644 206.032C346.378 206.032 345.136 206.159 343.92 206.412C342.755 206.665 341.792 207.172 341.032 207.932C340.272 208.641 339.892 209.781 339.892 211.352V214.772C339.892 215.583 339.968 216.317 340.12 216.976C340.323 217.635 340.627 218.167 341.032 218.572C341.59 219.079 342.35 219.459 343.312 219.712C344.326 219.965 345.77 220.092 347.644 220.092C348.86 220.092 350.102 220.041 351.368 219.94C352.635 219.788 353.927 219.585 355.244 219.332C356.612 219.079 357.955 218.724 359.272 218.268H360.792C360.792 220.599 360.792 222.955 360.792 225.336C360.792 227.667 360.792 230.023 360.792 232.404C360.792 232.505 360.767 232.607 360.716 232.708C360.716 232.809 360.666 232.911 360.564 233.012C360.21 233.367 359.272 233.721 357.752 234.076C356.232 234.431 354.459 234.709 352.432 234.912C350.406 235.165 348.354 235.292 346.276 235.292C342.628 235.292 339.36 234.937 336.472 234.228C333.584 233.519 331.127 232.404 329.1 230.884C327.074 229.364 325.503 227.413 324.388 225.032C323.324 222.651 322.792 219.788 322.792 216.444V209.072C322.792 205.627 323.628 202.536 325.3 199.8C326.972 197.013 329.531 194.835 332.976 193.264C336.472 191.643 340.906 190.832 346.276 190.832ZM387.515 190.68C391.872 190.68 395.571 191.415 398.611 192.884C401.651 194.353 403.956 196.456 405.527 199.192C407.097 201.877 407.883 205.145 407.883 208.996V216.444C407.883 216.596 407.832 216.748 407.731 216.9C407.68 217.001 407.604 217.103 407.502 217.204C407.401 217.255 407.249 217.28 407.047 217.28H389.035C388.376 217.28 387.717 217.28 387.059 217.28C386.4 217.28 385.741 217.28 385.083 217.28H380.143V209.68H392.683C392.683 209.528 392.683 209.376 392.683 209.224C392.683 209.072 392.683 208.844 392.683 208.54C392.683 207.679 392.581 206.995 392.379 206.488C392.227 205.931 391.973 205.475 391.619 205.12C391.264 204.715 390.808 204.436 390.251 204.284C389.693 204.081 389.06 203.98 388.351 203.98C387.033 203.98 385.969 204.385 385.159 205.196C384.348 205.956 383.943 206.969 383.943 208.236V217.28C383.943 217.989 384.019 218.673 384.171 219.332C384.323 219.94 384.601 220.447 385.007 220.852C385.463 221.308 386.197 221.663 387.211 221.916C388.224 222.169 389.896 222.271 392.227 222.22C393.696 222.22 395.115 222.144 396.483 221.992C397.901 221.84 399.32 221.612 400.739 221.308C402.157 221.004 403.652 220.649 405.223 220.244H406.743C406.743 222.271 406.743 224.221 406.743 226.096C406.743 227.92 406.743 229.845 406.743 231.872C406.743 231.973 406.717 232.075 406.667 232.176C406.667 232.277 406.616 232.379 406.515 232.48C406.109 232.885 405.172 233.341 403.703 233.848C402.284 234.304 400.485 234.684 398.307 234.988C396.179 235.343 393.747 235.52 391.011 235.52C387.059 235.52 383.588 235.115 380.599 234.304C377.66 233.544 375.203 232.404 373.227 230.884C371.251 229.313 369.756 227.388 368.743 225.108C367.729 222.777 367.223 220.092 367.223 217.052V209.148C367.223 206.412 367.679 203.929 368.591 201.7C369.553 199.42 370.921 197.469 372.695 195.848C374.468 194.176 376.596 192.909 379.079 192.048C381.612 191.136 384.424 190.68 387.515 190.68Z" fill="black"/>
<defs>
<clipPath id="clip0_56_3374">
<rect width="106.508" height="100.167" fill="white" transform="matrix(0.999986 0.0052352 -0.0052135 0.999986 355.868 136.034)"/>
</clipPath>
</defs>
</svg>
